<svg xmlns="http://www.w3.org/2000/svg" width="80mm" height="50mm" viewBox="0 0 80 50"><path d="M38.501 38.181c-.142-.923-.352-2.245-.467-2.936l-.21-1.257-2.52-1.241-2.52-1.242 2.533-1.278 2.533-1.279.224-1.434.458-2.924.233-1.49 2.117 2.085 2.116 2.086 1.635-.382c.9-.21 2.051-.386 2.56-.391l.926-.01-1.238 2.453-1.238 2.453 1.259 2.493c.692 1.372 1.19 2.563 1.106 2.647-.084.084-1.313-.063-2.73-.327l-2.577-.479-1.971 2.067-1.971 2.066zm7.562-10.623c0-.079-.781.008-1.737.192l-1.737.335-1.552-1.718-1.552-1.718 1.253 2.557 1.253 2.558 2.036-1.032c1.12-.567 2.036-1.096 2.036-1.174zm-3.921 10.47l.778-.913 1.265.042 1.265.042-1.326.315c-.729.173-1.648.564-2.043.87l-.718.556zm-18.473-2.726l-2.571-.506-1.619-1.58c-.89-.87-1.618-1.813-1.618-2.096 0-.71 2.76-5.674 3.493-6.282.727-.604.79.035.083.85-.28.324.051.085.738-.532.687-.616 1.355-1.12 1.485-1.12.13 0 .338.387.462.86l.225.86-.971.877c-.534.482-1.242 1.552-1.574 2.377l-.602 1.5.788.714.788.713 3.367.19 3.367.19 2.86 1.455 2.862 1.455-1.635.307c-2.407.453-6.997.346-9.928-.232zm-7.141-2.135C15.688 32.569 15 31.945 15 31.78c0-.467 1.607-2.277 1.615-1.819.005.225-.166.684-.379 1.02l-.386.61 1.29 1.331c.71.732 1.206 1.33 1.103 1.33-.103 0-.875-.488-1.715-1.086zm32.639-2.079c.47-.394 2.005-1.604 3.41-2.688 1.406-1.084 2.482-2.045 2.392-2.135-.09-.09-.854.027-1.698.26-2.616.722-2.598.168.04-1.238 1.389-.74 3.269-1.982 4.178-2.76l1.654-1.416-.005-1.092-.005-1.092-1.426-.924c-.784-.508-1.425-1.2-1.425-1.538v-.615l1.48.619 1.481.618-.56-.691-.562-.692.613.35c.337.192 1.104.69 1.704 1.105l1.091.754.454 2.118.454 2.117-2.362 2.388c-2.47 2.498-6.252 4.999-9.72 6.427l-2.043.843zm13.386-6.494l1.495-2.098.041-1.172.042-1.171.434 1.357.435 1.358-1.971 1.912-1.971 1.912zm-37.11-.027l-.275-1.63-1.472-.702-1.472-.702 1.251-.761 1.252-.762.288-1.702.287-1.702 1.138 1.09 1.138 1.09 1.477-.408c.812-.224 1.477-.321 1.477-.216 0 .106-.297.766-.66 1.468l-.66 1.276.66 1.117c.363.614.66 1.226.66 1.36 0 .134-.63.244-1.401.244H27.73l-1.006 1.285-1.005 1.285zm5.504-3.655c.003-.418.141-.966.306-1.218.378-.578 5.61-2.474 8.994-3.26l2.562-.594 2.751.483 2.751.483-4.087.706c-3.35.578-8.456 2.147-12.568 3.86l-.716.299.006-.76zm18.795-3.031v-1.756l-1.284-1.072-1.284-1.072 1.648-.493 1.648-.494.267-1.428c.148-.785.433-1.427.635-1.427s.693.552 1.092 1.226l.724 1.226h3.16l-.849 1.374-.85 1.374.455 1.304c.25.717.371 1.387.27 1.489-.103.102-.76-.016-1.461-.26l-1.275-.444-1.448 1.104-1.448 1.105z"/></svg>