<svg xmlns="http://www.w3.org/2000/svg" width="80mm" height="50mm" viewBox="0 0 80 50"><path d="M18.7 41.992c.02-.331 1.194-1.96 2.615-3.62 2.304-2.69 3.271-3.149 8.89-4.224 9.396-1.798 9.46-1.742 4.174 3.6-4.825 4.875-6.137 5.594-4.446 2.434.514-.96.764-1.918.554-2.127-.209-.21-2.823.726-5.808 2.08-5.97 2.707-6.022 2.723-5.979 1.857zm20.892-3.218c7.045-8.384 8.243-9.919 7.953-10.188-.173-.16-3.392.007-7.153.373-3.761.365-9.169.687-12.017.714l-5.179.048 2.27-2.37 2.27-2.37-2.152-2.558c-1.184-1.407-1.998-2.713-1.81-2.902.19-.19 5.507.047 11.817.52 6.31.475 11.649.687 11.864.47.216-.215-1.877-2.95-4.65-6.076-2.772-3.128-4.86-5.868-4.638-6.089.222-.221 3.257 1.71 6.745 4.292 3.487 2.582 8.604 6.229 11.37 8.103 2.765 1.874 5.026 3.666 5.024 3.981-.003.316-2.627 2.353-5.833 4.527a397.846 397.846 0 0 0-11.602 8.247c-3.175 2.36-6.007 4.292-6.293 4.292-.286 0 .62-1.357 2.014-3.017zm-6.038-22.46c-.885-.193-3.462-.71-5.726-1.148-3.38-.655-4.584-1.379-6.718-4.035-1.431-1.78-2.436-3.402-2.234-3.604.202-.202 2.824.736 5.828 2.083 3.004 1.348 5.62 2.292 5.813 2.099.193-.193-.067-1.138-.584-2.099-1.69-3.16-.379-2.44 4.446 2.435 4.94 4.993 4.842 5.503-.826 4.27z"/></svg>