<svg xmlns="http://www.w3.org/2000/svg" width="80mm" height="50mm" viewBox="0 0 80 50"><path d="M24.207 42.574c-1.235-.983-2.245-1.964-2.245-2.18 0-.609.305-.486 2.2.887l1.766 1.28 1.121-.28c.617-.155 2.324-1.354 3.792-2.666l2.67-2.386 3.284-7.07c1.805-3.89 3.4-7.843 3.545-8.785l.262-1.713 1.172 1.158c.644.637 1.17 1.504 1.167 1.927-.002.423-.48 1.79-1.06 3.038l-1.056 2.269-.834-.446-.833-.446-.224 1.175a91.253 91.253 0 0 0-.507 3.102c-.386 2.65-2.196 5.64-5.636 9.316l-2.907 3.107-1.716.25-1.716.25zm11.11.895c.248-.623 12.548-19.674 12.642-19.58.05.05-.574 2.589-1.388 5.64-.815 3.052-1.48 5.741-1.478 5.977.002.236 1.177-1.402 2.61-3.64 1.433-2.238 2.795-4.261 3.025-4.497.23-.235.02.632-.47 1.927-.488 1.296-.888 2.524-.889 2.73 0 .318 3.365-2.492 7.849-6.557l1.21-1.097-.85 2.14a275.04 275.04 0 0 1-2.372 5.675c-.837 1.943-1.429 3.533-1.315 3.533.114 0 .947-.49 1.852-1.088l1.644-1.088 3.807.124 3.806.125L50.091 38.8c-8.2 2.754-14.848 4.855-14.774 4.67zm-12.598-4.433l-2.027-1.389-.008-1.522-.008-1.522 1.413-1.368 1.412-1.37 1.907-.04 1.906-.042-1.606-.66-1.606-.658v-3.31h.76c.793 0 4.14-2.523 3.799-2.864-.108-.108-.783.107-1.5.477-.717.371-1.746.675-2.288.677-.541.001-2.773-.625-4.958-1.392l-3.974-1.394-.47-1.563L15 19.534l.298-2.384.297-2.384 1.577-2.155 1.577-2.156 2.258-.855 2.257-.854 5.121 3.53 5.122 3.53.707 2.463c.693 2.412 1.451 3.27 1.451 1.641 0-.452.114-1.119.254-1.483l.254-.66 1.03.675 1.032.675v3.599l-3.013 6.492-3.013 6.493-2.097 2.188-2.098 2.187-1.635.175-1.634.174zM20.677 20.34c.824-.642 2.11-2.31 2.858-3.708l1.36-2.54-.29-1.288c-.158-.708-.616-1.75-1.017-2.313l-.729-1.026-1.84.705-1.841.706-1.386 2.037-1.385 2.037-.278 2.026-.277 2.026.806.258c.444.142 1.173.398 1.62.568l.814.31-1.456.964-1.456.965 1.5-.28c.823-.153 2.172-.804 2.997-1.447zM25.35 7.874l-1.965-1.286-1.8.635c-2.217.783-1.996.232.327-.815l1.705-.77 1.956 1.603c1.715 1.406 2.23 1.94 1.849 1.923-.06-.003-.992-.584-2.072-1.29z"/></svg>